<svg width="1200" height="720" viewBox="0 0 1200 720" fill="none" xmlns="http://www.w3.org/2000/svg">
  <rect width="1200" height="720" fill="#FAF9F6"/>
  <rect x="92" y="78" width="1016" height="564" rx="18" fill="white" stroke="#E6E1D8"/>
  <rect x="92" y="78" width="220" height="564" rx="18" fill="#0E2A4D"/>
  <rect x="340" y="118" width="280" height="96" rx="12" fill="#F1EEE7"/>
  <rect x="644" y="118" width="198" height="96" rx="12" fill="#F1EEE7"/>
  <rect x="866" y="118" width="198" height="96" rx="12" fill="#F1EEE7"/>
  <rect x="340" y="246" width="724" height="220" rx="12" fill="#F8FBFA" stroke="#E6E1D8"/>
  <rect x="380" y="402" width="34" height="36" rx="6" fill="#7FC9AE"/>
  <rect x="428" y="350" width="34" height="88" rx="6" fill="#1F9D74"/>
  <rect x="476" y="310" width="34" height="128" rx="6" fill="#1F9D74"/>
  <rect x="524" y="278" width="34" height="160" rx="6" fill="#198862"/>
  <rect x="572" y="330" width="34" height="108" rx="6" fill="#1F9D74"/>
  <rect x="340" y="494" width="724" height="92" rx="12" fill="white" stroke="#E6E1D8"/>
  <circle cx="202" cy="142" r="28" fill="#1F9D74" fill-opacity="0.24"/>
  <rect x="156" y="198" width="112" height="16" rx="8" fill="white" fill-opacity="0.7"/>
  <rect x="156" y="236" width="112" height="16" rx="8" fill="white" fill-opacity="0.34"/>
  <rect x="156" y="274" width="112" height="16" rx="8" fill="white" fill-opacity="0.34"/>
  <text x="340" y="656" fill="#5C7AA0" font-family="Arial, sans-serif" font-size="22">Placeholder visual: reemplazar por captura real del producto</text>
</svg>